<?xml version="1.0"?>
<svg xmlns="http://www.w3.org/2000/svg" height="512px" viewBox="-52 -21 682 682.66789" width="512px"><path d="m231.28125 184.679688c.3125.230468.621094.464843.957031.671874 1.445313.878907 2.890625 1.6875 4.332031 2.480469.457032.253907.921876.492188 1.386719.742188.734375.390625 1.472657.765625 2.207031 1.132812.648438.320313 1.292969.648438 1.945313.957031.753906.355469 1.503906.6875 2.253906 1.019532.863281.378906 1.726563.75 2.601563 1.113281.9375.378906 1.871094.75 2.796875 1.101563.464843.171874.929687.339843 1.390625.503906 1.109375.402344 2.214844.777344 3.316406 1.128906.253906.078125.507812.164062.765625.25 1.445313.441406 2.878906.851562 4.304687 1.21875.246094.070312.496094.121094.746094.1875 1.179688.296875 2.351563.570312 3.519532.8125.429687.09375.859374.1875 1.289062.273438 1.171875.230468 2.34375.445312 3.5.632812 5.265625.851562 10.660156 1.316406 16.164062 1.316406 17.65625 0 34.246094-4.609375 48.664063-12.664062 2.585937-1.378906 4.140625-2.375 4.472656-2.59375.210938-.140625.402344-.304688.601563-.449219 27.851562-17.796875 46.371094-48.96875 46.371094-84.402344 0-55.203125-44.90625-100.113281-100.109376-100.113281-55.199218 0-100.113281 44.910156-100.113281 100.113281 0 35.542969 18.636719 66.800781 46.636719 84.566407zm47.777344-81.558594v-13.992188c0-3.339844 2.71875-6.054687 6.058594-6.054687 3.339843 0 6.054687 2.714843 6.054687 6.054687v13.992188c0 3.261718-2.59375 5.90625-5.824219 6.027344h-.460937c-3.230469-.121094-5.828125-2.765626-5.828125-6.027344zm-11.382813 31.039062h16.523438c.308593.007813.609375.023438.917969.023438.304687 0 .605468-.015625.914062-.023438h16.0625c4.238281 0 8.136719 2.121094 10.429688 5.6875 3.9375 6.109375 6.023437 13.183594 6.023437 20.449219v6.765625c-11.328125 5.359375-38.203125 14.648438-67.320313.222656v-6.988281c0-7.265625 2.082032-14.339844 6.019532-20.449219 2.296875-3.566406 6.191406-5.6875 10.429687-5.6875zm17.082031-109.15625c41.414063 0 75.105469 33.691406 75.105469 75.109375 0 18.289063-6.582031 35.070313-17.488281 48.113281-1.519531-7.765624-4.492188-15.195312-8.828125-21.929687-4.484375-6.957031-11.007813-12.078125-18.511719-14.835937.742188-2.65625 1.148438-5.449219 1.148438-8.339844v-13.992188c0-17.128906-13.941406-31.0625-31.066406-31.0625-17.128907 0-31.0625 13.933594-31.0625 31.0625v13.992188c0 2.832031.386718 5.574218 1.101562 8.1875-7.679688 2.71875-14.363281 7.90625-18.929688 14.988281-4.378906 6.800781-7.371093 14.316406-8.875 22.167969-11.03125-13.074219-17.703124-29.945313-17.703124-48.351563 0-41.417969 33.699218-75.109375 75.109374-75.109375zm0 0" fill="#FFFFFF"/><path d="m576.632812 238.34375c0-12.949219-2.441406-25.5625-7.253906-37.480469-.175781-.433593-.355468-.863281-.539062-1.304687-.28125-.664063-.566406-1.328125-.859375-1.980469-2.8125-6.308594-10.207031-9.140625-16.511719-6.328125-6.308594 2.8125-9.140625 10.203125-6.328125 16.511719.21875.492187.4375.988281.644531 1.480469.136719.328124.273438.652343.40625.984374 3.605469 8.933594 5.4375 18.390626 5.4375 28.117188 0 18.289062-6.582031 35.070312-17.488281 48.113281-1.519531-7.761719-4.492187-15.199219-8.828125-21.929687-4.488281-6.957032-11.007812-12.078125-18.515625-14.835938.742187-2.65625 1.148437-5.449218 1.148437-8.339844v-13.988281c0-17.128906-13.9375-31.066406-31.066406-31.066406-17.125 0-31.058594 13.9375-31.058594 31.066406v13.988281c0 2.835938.386719 5.582032 1.101563 8.1875-7.683594 2.71875-14.363281 7.90625-18.929687 14.988282-4.378907 6.804687-7.371094 14.316406-8.875 22.167968-11.03125-13.074218-17.695313-29.945312-17.695313-48.351562 0-41.417969 33.691406-75.109375 75.101563-75.109375.769531 0 1.542968.015625 2.308593.035156.132813.003907.257813.011719.386719.011719 6.726562 0 12.285156-5.359375 12.488281-12.128906.207031-6.90625-5.21875-12.667969-12.121093-12.878906-1.015626-.027344-2.039063-.042969-3.0625-.042969-55.199219 0-100.113282 44.914062-100.113282 100.113281 0 35.546875 18.644532 66.804688 46.644532 84.574219.308593.230469.617187.457031.949218.664062 1.445313.875 2.886719 1.6875 4.324219 2.476563.464844.253906.933594.5 1.40625.75.730469.386718 1.457031.761718 2.1875 1.125.652344.324218 1.304687.648437 1.964844.960937.738281.351563 1.46875.671875 2.207031 1 .878906.390625 1.765625.773438 2.660156 1.136719.929688.382812 1.851563.753906 2.769532 1.09375.46875.175781.9375.34375 1.40625.515625 1.101562.394531 2.203124.765625 3.296874 1.117187.261719.082032.519532.171876.78125.253907 1.4375.445312 2.871094.847656 4.289063 1.21875.253906.066406.507813.125.761719.1875 1.179687.296875 2.34375.566406 3.507812.816406.433594.089844.863282.183594 1.296875.273437 1.171875.226563 2.339844.4375 3.496094.625 5.269531.859376 10.664063 1.320313 16.167969 1.320313 17.65625 0 34.25-4.609375 48.667968-12.664063 2.578126-1.382812 4.132813-2.378906 4.464844-2.59375.210938-.140624.402344-.300781.605469-.453124 27.847656-17.792969 46.367187-48.964844 46.367187-84.398438zm-105.808593-10.980469c0-3.339843 2.714843-6.054687 6.054687-6.054687s6.058594 2.714844 6.058594 6.054687v13.988281c0 3.261719-2.597656 5.914063-5.828125 6.035157h-.460937c-3.230469-.121094-5.824219-2.773438-5.824219-6.035157zm-27.835938 71.167969c0-7.269531 2.085938-14.34375 6.019531-20.453125 2.296876-3.558594 6.191407-5.683594 10.429688-5.683594h16.527344c.304687.003907.605468.019531.914062.019531s.609375-.007812.914063-.019531h16.070312c4.230469 0 8.132813 2.125 10.421875 5.683594 3.941406 6.109375 6.023438 13.183594 6.023438 20.453125v6.769531c-11.328125 5.355469-38.203125 14.644531-67.320313.214844zm0 0" fill="#FFFFFF"/><path d="m198.46875 238.34375c0-55.199219-44.90625-100.113281-100.113281-100.113281-55.199219 0-100.105469 44.914062-100.105469 100.113281 0 35.550781 18.636719 66.804688 46.640625 84.574219.308594.230469.613281.464843.953125.664062 1.4375.878907 2.878906 1.6875 4.320312 2.476563.464844.257812.9375.5 1.40625.75.726563.386718 1.460938.761718 2.1875 1.125.652344.324218 1.304688.652344 1.960938.964844.738281.347656 1.476562.667968 2.207031.996093.878907.390625 1.769531.773438 2.664063 1.136719.925781.382812 1.847656.753906 2.773437 1.101562.460938.167969.929688.339844 1.398438.507813 1.105469.394531 2.203125.765625 3.296875 1.117187.265625.082032.523437.171876.78125.253907 1.441406.445312 2.871094.855469 4.296875 1.21875.25.070312.503906.128906.757812.191406 1.175781.292969 2.347657.566406 3.511719.8125.429688.089844.859375.183594 1.292969.273437 1.171875.226563 2.339843.441407 3.5.625 5.265625.859376 10.660156 1.320313 16.164062 1.320313 17.65625 0 34.246094-4.609375 48.664063-12.664063 2.582031-1.378906 4.136718-2.375 4.46875-2.59375.214844-.140624.40625-.300781.605468-.449218 27.851563-17.796875 46.367188-48.96875 46.367188-84.402344zm-175.214844 0c0-41.410156 33.691406-75.101562 75.101563-75.101562 41.417969 0 75.109375 33.691406 75.109375 75.101562 0 18.292969-6.582032 35.070312-17.492188 48.113281-1.519531-7.761719-4.492187-15.195312-8.828125-21.929687-4.480469-6.953125-11.003906-12.078125-18.507812-14.835938.742187-2.65625 1.144531-5.449218 1.144531-8.339844v-13.988281c0-17.128906-13.933594-31.066406-31.0625-31.066406s-31.066406 13.9375-31.066406 31.066406v13.988281c0 2.835938.386718 5.582032 1.105468 8.191407-7.6875 2.714843-14.367187 7.902343-18.929687 14.984375-4.382813 6.804687-7.375 14.316406-8.878906 22.167968-11.03125-13.074218-17.695313-29.945312-17.695313-48.351562zm69.40625 3.007812v-13.988281c0-3.339843 2.71875-6.054687 6.058594-6.054687s6.054688 2.714844 6.054688 6.054687v13.988281c0 3.261719-2.59375 5.914063-5.824219 6.035157h-.460938c-3.230469-.121094-5.828125-2.773438-5.828125-6.035157zm-11.382812 31.039063h16.527344c.304687.007813.605468.023437.914062.023437s.609375-.015624.914062-.023437h16.066407c4.234375 0 8.132812 2.128906 10.425781 5.6875 3.941406 6.109375 6.019531 13.183594 6.019531 20.449219v6.769531c-11.328125 5.359375-38.203125 14.648437-67.316406.21875v-6.988281c0-7.265625 2.082031-14.339844 6.019531-20.449219 2.292969-3.558594 6.191406-5.6875 10.429688-5.6875zm0 0" fill="#FFFFFF"/><path d="m285.335938 306.496094c6.90625 0 12.507812-5.59375 12.507812-12.5v-19.707032c0-6.902343-5.601562-12.503906-12.507812-12.503906-6.902344 0-12.503907 5.601563-12.503907 12.503906v19.707032c0 6.90625 5.601563 12.5 12.503907 12.5zm0 0" fill="#FFFFFF"/><path d="m335.519531 327.066406c1.882813 5.019532 6.644531 8.113282 11.703125 8.113282 1.464844 0 2.949219-.261719 4.398438-.808594l33.222656-12.484375c6.464844-2.425781 9.738281-9.636719 7.304688-16.101563-2.425782-6.464844-9.636719-9.738281-16.101563-7.304687l-33.222656 12.484375c-6.464844 2.429687-9.738281 9.644531-7.304688 16.101562zm0 0" fill="#FFFFFF"/><path d="m226.003906 335.179688c5.058594 0 9.824219-3.097657 11.703125-8.113282 2.429688-6.457031-.839843-13.671875-7.304687-16.097656l-33.222656-12.488281c-6.464844-2.429688-13.671876.839843-16.105469 7.308593-2.429688 6.460938.839843 13.671876 7.304687 16.097657l33.230469 12.484375c1.445313.546875 2.933594.808594 4.394531.808594zm0 0" fill="#FFFFFF"/><path d="m399.351562 469.628906c-6.054687-5.722656-14.679687-8.90625-23-7.863281 1.671876-.210937-3.835937-11.902344-4.515624-12.820313-6.152344-8.273437-18.113282-13.722656-28.222657-10.773437.78125-.230469-1.785156-6.144531-10.933593-12.257813-4.203126-2.8125-12.078126-6.5625-17.171876-4.609374-.117187-.882813-.09375-1.820313-.09375-2.738282 15.558594-9.835937 25.289063-27.132812 25.289063-45.828125 0-30.484375-25.300781-55.171875-56.011719-54.15625-28.132812.933594-51.164062 23.765625-52.308594 51.894531-.832031 20.664063 9.859376 39.453126 27.335938 49.355469v40.066407c0 .585937.039062 1.234374-.039062 1.792968.15625-1.117187-6.675782-4.199218-7.59375-4.664062-2.878907-1.46875-5.882813-2.714844-9.007813-3.558594-6.1875-1.671875-12.867187-1.578125-18.480469 1.796875-9.519531 5.707031-15.203125 19.042969-10.886718 29.53125 0 0 13.046874 31.71875 13.046874 31.71875 4.03125 9.792969 6.101563 20.28125 6.101563 30.871094v9.640625c0 11.578125 4.511719 22.460937 12.699219 30.648437l15.46875 15.46875c1.617187 1.621094 2.523437 3.8125 2.523437 6.097657v17.863281c0 6.261719 4.449219 11.863281 10.648438 12.757812 7.730469 1.113281 14.359375-4.855469 14.359375-12.367187v-18.246094c0-8.921875-3.542969-17.476562-9.851563-23.785156l-15.46875-15.46875c-3.460937-3.460938-5.371093-8.066406-5.371093-12.96875v-9.632813c0-13.855469-2.710938-27.578125-7.984376-40.390625l-5.339843-13c-.660157-1.589844 1.65625-2.664062 2.441406-1.125 3.765625 7.363282 7.484375 14.769532 10.628906 22.425782 2.578125 6.28125 3.9375 13.496093 11.464844 15.449218 1.394531.363282 2.859375.480469 4.300781.34375 6.425782-.59375 11.34375-5.988281 11.34375-12.449218v-119.789063c0-.699219.261719-1.371094.738282-1.890625l.097656-.105469c1.042968-1.140625 2.8125-1.210937 3.949218-.167969.574219.53125.902344 1.273438.902344 2.054688v94.363281c0 6.261719 4.445313 11.863281 10.648438 12.757813 7.730468 1.113281 14.355468-4.855469 14.355468-12.367188v-44.023437c0-.757813.925782-2.808594 3.085938-2.808594 1.609375 0 2.597656 2.046875 2.597656 2.699219v48.003906c0 6.265625 4.449219 11.867188 10.652344 12.757812 7.726562 1.113282 14.359375-4.851562 14.359375-12.367187v-30.054687c0-1.703126.527344-4.160157 2.675781-4.160157 2.464844 0 2.582032 3.753907 2.582032 4.308594v37.1875c0 6.265625 4.445312 11.867187 10.648437 12.761719 7.730469 1.109375 14.355469-4.859375 14.355469-12.371094v-14.121094c0-.917968.285156-1.816406.808594-2.570312l.746093-1.074219c.84375-1.210937 2.558594-1.421875 3.671875-.445313 0 0 .886719.5.886719.796876v86.425781c0 3.210937-1.015625 6.34375-2.898437 8.941406l-4.117188 5.683594c-3.476562 4.789062-5.347656 10.554687-5.347656 16.476562v21.554688c0 6.269531 4.449218 11.867187 10.652344 12.761719 7.726562 1.109374 14.359374-4.859376 14.359374-12.371094v-21.949219c0-.644531.199219-1.273437.578126-1.796875l4.117187-5.679688c4.980469-6.867187 7.660156-15.140624 7.660156-23.621093 0 0 0-86.6875 0-86.78125 0-7.082031-3.222656-13.394531-8.136719-18.039063zm-112.953124-100.089844c-6.5.269532-12.5 3.054688-16.90625 7.847657l-3.359376 3.65625c-1.90625 2.074219-3.398437 4.441406-4.472656 6.980469-3.398437-5.535157-4.972656-12.21875-4.054687-19.199219 1.738281-13.25 12.589843-23.761719 25.890625-25.109375 17.4375-1.769532 32.203125 11.9375 32.203125 29.023437 0 4.636719-1.128907 9.109375-3.148438 13.109375-1.277343-2.414062-2.941406-4.628906-4.988281-6.515625l-3.671875-3.382812c-4.777344-4.402344-11.003906-6.703125-17.492187-6.410157zm0 0" fill="#FFFFFF"/><path d="m276.503906 234.414062.367188.28125c2.261718 1.714844 4.917968 2.542969 7.554687 2.542969 3.773438 0 7.503907-1.699219 9.964844-4.941406 4.179687-5.496094 3.105469-13.339844-2.394531-17.519531l-.363282-.277344c-5.5-4.179688-13.347656-3.105469-17.519531 2.394531-4.179687 5.5-3.105469 13.34375 2.390625 17.519531zm0 0" fill="#FFFFFF"/><path d="m515.066406 178.28125.367188.28125c2.261718 1.714844 4.917968 2.542969 7.554687 2.542969 3.773438 0 7.503907-1.699219 9.964844-4.941407 4.175781-5.496093 3.105469-13.339843-2.394531-17.519531l-.371094-.277343c-5.496094-4.175782-13.335938-3.105469-17.515625 2.394531-4.175781 5.5-3.105469 13.34375 2.394531 17.519531zm0 0" fill="#FFFFFF"/></svg>
